<svg width="58" height="40" viewBox="0 0 58 40" fill="none" xmlns="http://www.w3.org/2000/svg">
<path d="M20 11.25C14.4766 11.25 10 14.8867 10 19.375C10 21.3125 10.8359 23.0859 12.2266 24.4805C11.7383 26.4492 10.1055 28.2031 10.0859 28.2227C10 28.3125 9.97656 28.4453 10.0273 28.5625C10.0781 28.6797 10.1875 28.75 10.3125 28.75C12.9023 28.75 14.8438 27.5078 15.8047 26.7422C17.082 27.2227 18.5 27.5 20 27.5C25.5234 27.5 30 23.8633 30 19.375C30 14.8867 25.5234 11.25 20 11.25Z" fill="white"/>
<path d="M44.9091 14.2045C42.5455 14.1761 41.0227 15.9545 41.0227 18.0909C41.0227 20.3409 42.6818 21.9545 44.6818 21.9545C45.8864 21.9545 46.9091 21.3636 47.5455 20.4091H47.6364C47.6364 23.2727 46.5227 24.9091 44.7273 24.9091C43.5 24.9091 42.75 24.1364 42.5 23.0682H41.1136C41.3864 24.9091 42.7727 26.1591 44.7273 26.1591C47.3409 26.1591 48.9545 23.8409 48.9545 19.7045C48.9545 15.4318 46.8182 14.2273 44.9091 14.2045ZM44.9091 15.4545C46.3636 15.4545 47.4318 16.7045 47.4318 18.0682C47.4318 19.4545 46.2955 20.7045 44.8636 20.7045C43.4318 20.7045 42.3864 19.5455 42.3864 18.0909C42.3864 16.6364 43.4773 15.4545 44.9091 15.4545Z" fill="white"/>
</svg>
