<svg width="58" height="40" viewBox="0 0 58 40" fill="none" xmlns="http://www.w3.org/2000/svg">
<path d="M28.0587 12.4466C25.9181 10.6224 22.7346 10.9505 20.7698 12.9778L20.0003 13.7708L19.2308 12.9778C17.2699 10.9505 14.0824 10.6224 11.9418 12.4466C9.48877 14.5403 9.35987 18.298 11.5551 20.5675L19.1136 28.3721C19.6019 28.876 20.3948 28.876 20.8831 28.3721L28.4415 20.5675C30.6407 18.298 30.5118 14.5403 28.0587 12.4466Z" fill="white"/>
<path d="M44.9091 14.2045C42.5455 14.1761 41.0227 15.9545 41.0227 18.0909C41.0227 20.3409 42.6818 21.9545 44.6818 21.9545C45.8864 21.9545 46.9091 21.3636 47.5455 20.4091H47.6364C47.6364 23.2727 46.5227 24.9091 44.7273 24.9091C43.5 24.9091 42.75 24.1364 42.5 23.0682H41.1136C41.3864 24.9091 42.7727 26.1591 44.7273 26.1591C47.3409 26.1591 48.9545 23.8409 48.9545 19.7045C48.9545 15.4318 46.8182 14.2273 44.9091 14.2045ZM44.9091 15.4545C46.3636 15.4545 47.4318 16.7045 47.4318 18.0682C47.4318 19.4545 46.2955 20.7045 44.8636 20.7045C43.4318 20.7045 42.3864 19.5455 42.3864 18.0909C42.3864 16.6364 43.4773 15.4545 44.9091 15.4545Z" fill="white"/>
</svg>
